<svg width="90" height="90" viewBox="0 0 90 90" fill="none" xmlns="http://www.w3.org/2000/svg">
<path d="M83.6748 53.6269C81.0234 60.7243 75.609 68.4067 67.9896 70.6819C56.4696 74.1199 55.1016 83.3989 34.4808 82.5385C31.4687 82.4267 28.4776 81.9886 25.56 81.2317C24.1346 80.8555 22.7344 80.3895 21.3678 79.8367C9.32401 74.9569 3.04021 64.2181 2.52001 52.9825C1.83241 38.2027 12.1428 31.1593 18.8442 27.0355C25.5456 22.9117 33.6222 6.92768 53.8992 7.61528C56.9957 7.70818 60.0712 8.15754 63.0648 8.95448C69.8886 10.8013 76.824 14.8945 80.856 20.8561C81.1584 21.3037 81.4476 21.7621 81.7236 22.2313C87.12 31.3843 87.2874 43.9501 83.6748 53.6269Z" fill="#867DEF"/>
<path opacity="0.7" d="M83.6748 53.6269C81.0234 60.7243 75.609 68.4067 67.9896 70.6819C56.4696 74.1199 55.1016 83.3989 34.4808 82.5385C31.4687 82.4267 28.4776 81.9886 25.56 81.2317C24.1346 80.8555 22.7344 80.3895 21.3678 79.8367C9.32401 74.9569 3.04021 64.2181 2.52001 52.9825C1.83241 38.2027 12.1428 31.1593 18.8442 27.0355C25.5456 22.9117 33.6222 6.92768 53.8992 7.61528C56.9957 7.70818 60.0712 8.15754 63.0648 8.95448C69.8886 10.8013 76.824 14.8945 80.856 20.8561C81.1584 21.3037 81.4476 21.7621 81.7236 22.2313C87.12 31.3843 87.2874 43.9501 83.6748 53.6269Z" fill="white"/>
<g opacity="0.2">
<path d="M36.2664 7.55859H16.38V63.5134H36.2664V7.55859Z" stroke="black" stroke-miterlimit="10" stroke-linecap="round"/>
<path d="M16.4862 9.25986H36.2268L35.7624 7.72266" stroke="black" stroke-miterlimit="10" stroke-linecap="round"/>
<path d="M16.4862 11.1231H36.2268L35.7624 9.58594" stroke="black" stroke-miterlimit="10" stroke-linecap="round"/>
<path d="M16.4862 12.9843H36.2268L35.7624 11.4453" stroke="black" stroke-miterlimit="10" stroke-linecap="round"/>
<path d="M16.4862 14.8476H36.2268L35.7624 13.3086" stroke="black" stroke-miterlimit="10" stroke-linecap="round"/>
<path d="M16.4862 16.7109H36.2268L35.7624 15.1719" stroke="black" stroke-miterlimit="10" stroke-linecap="round"/>
<path d="M16.4862 18.5742H36.2268L35.7624 17.0352" stroke="black" stroke-miterlimit="10" stroke-linecap="round"/>
<path d="M16.4862 20.4374H36.2268L35.7624 18.8984" stroke="black" stroke-miterlimit="10" stroke-linecap="round"/>
<path d="M16.4862 22.3007H36.2268L35.7624 20.7617" stroke="black" stroke-miterlimit="10" stroke-linecap="round"/>
<path d="M16.4862 24.164H36.2268L35.7624 22.625" stroke="black" stroke-miterlimit="10" stroke-linecap="round"/>
<path d="M16.4862 26.0273H36.2268L35.7624 24.4883" stroke="black" stroke-miterlimit="10" stroke-linecap="round"/>
<path d="M16.4862 27.8906H36.2268L35.7624 26.3516" stroke="black" stroke-miterlimit="10" stroke-linecap="round"/>
<path d="M16.4862 29.7538H36.2268L35.7624 28.2148" stroke="black" stroke-miterlimit="10" stroke-linecap="round"/>
<path d="M16.4862 31.6171H36.2268L35.7624 30.0781" stroke="black" stroke-miterlimit="10" stroke-linecap="round"/>
<path d="M16.4862 33.4804H36.2268L35.7624 31.9414" stroke="black" stroke-miterlimit="10" stroke-linecap="round"/>
<path d="M16.4862 35.338H36.2268L35.7624 33.8008" stroke="black" stroke-miterlimit="10" stroke-linecap="round"/>
<path d="M16.4862 37.2013H36.2268L35.7624 35.6641" stroke="black" stroke-miterlimit="10" stroke-linecap="round"/>
<path d="M16.4862 39.0645H36.2268L35.7624 37.5273" stroke="black" stroke-miterlimit="10" stroke-linecap="round"/>
<path d="M16.4862 40.9278H36.2268L35.7624 39.3906" stroke="black" stroke-miterlimit="10" stroke-linecap="round"/>
<path d="M16.4862 42.7911H36.2268L35.7624 41.2539" stroke="black" stroke-miterlimit="10" stroke-linecap="round"/>
<path d="M16.4862 44.6544H36.2268L35.7624 43.1172" stroke="black" stroke-miterlimit="10" stroke-linecap="round"/>
<path d="M16.4862 46.5177H36.2268L35.7624 44.9805" stroke="black" stroke-miterlimit="10" stroke-linecap="round"/>
<path d="M16.4862 48.381H36.2268L35.7624 46.8438" stroke="black" stroke-miterlimit="10" stroke-linecap="round"/>
<path d="M16.4862 50.2421H36.2268L35.7624 48.7031" stroke="black" stroke-miterlimit="10" stroke-linecap="round"/>
<path d="M16.4862 52.1054H36.2268L35.7624 50.5664" stroke="black" stroke-miterlimit="10" stroke-linecap="round"/>
<path d="M16.4862 53.9687H36.2268L35.7624 52.4297" stroke="black" stroke-miterlimit="10" stroke-linecap="round"/>
<path d="M16.4862 55.832H36.2268L35.7624 54.293" stroke="black" stroke-miterlimit="10" stroke-linecap="round"/>
<path d="M16.4862 57.6953H36.2268L35.7624 56.1562" stroke="black" stroke-miterlimit="10" stroke-linecap="round"/>
<path d="M16.4862 59.5585H36.2268L35.7624 58.0195" stroke="black" stroke-miterlimit="10" stroke-linecap="round"/>
<path d="M16.4862 61.4218H36.2268L35.7624 59.8828" stroke="black" stroke-miterlimit="10" stroke-linecap="round"/>
</g>
<g opacity="0.2">
<path d="M57.6504 7.55859H37.764V63.5134H57.6504V7.55859Z" stroke="black" stroke-miterlimit="10" stroke-linecap="round"/>
<path d="M37.8702 9.25986H57.6108L57.1482 7.72266" stroke="black" stroke-miterlimit="10" stroke-linecap="round"/>
<path d="M37.8702 11.1231H57.6108L57.1482 9.58594" stroke="black" stroke-miterlimit="10" stroke-linecap="round"/>
<path d="M37.8702 12.9843H57.6108L57.1482 11.4453" stroke="black" stroke-miterlimit="10" stroke-linecap="round"/>
<path d="M37.8702 14.8476H57.6108L57.1482 13.3086" stroke="black" stroke-miterlimit="10" stroke-linecap="round"/>
<path d="M37.8702 16.7109H57.6108L57.1482 15.1719" stroke="black" stroke-miterlimit="10" stroke-linecap="round"/>
<path d="M37.8702 18.5742H57.6108L57.1482 17.0352" stroke="black" stroke-miterlimit="10" stroke-linecap="round"/>
<path d="M37.8702 20.4374H57.6108L57.1482 18.8984" stroke="black" stroke-miterlimit="10" stroke-linecap="round"/>
<path d="M37.8702 22.3007H57.6108L57.1482 20.7617" stroke="black" stroke-miterlimit="10" stroke-linecap="round"/>
<path d="M37.8702 24.164H57.6108L57.1482 22.625" stroke="black" stroke-miterlimit="10" stroke-linecap="round"/>
<path d="M37.8702 26.0273H57.6108L57.1482 24.4883" stroke="black" stroke-miterlimit="10" stroke-linecap="round"/>
<path d="M37.8702 27.8906H57.6108L57.1482 26.3516" stroke="black" stroke-miterlimit="10" stroke-linecap="round"/>
<path d="M37.8702 29.7538H57.6108L57.1482 28.2148" stroke="black" stroke-miterlimit="10" stroke-linecap="round"/>
<path d="M37.8702 31.6171H57.6108L57.1482 30.0781" stroke="black" stroke-miterlimit="10" stroke-linecap="round"/>
<path d="M37.8702 33.4804H57.6108L57.1482 31.9414" stroke="black" stroke-miterlimit="10" stroke-linecap="round"/>
<path d="M37.8702 35.338H57.6108L57.1482 33.8008" stroke="black" stroke-miterlimit="10" stroke-linecap="round"/>
<path d="M37.8702 37.2013H57.6108L57.1482 35.6641" stroke="black" stroke-miterlimit="10" stroke-linecap="round"/>
<path d="M37.8702 39.0645H57.6108L57.1482 37.5273" stroke="black" stroke-miterlimit="10" stroke-linecap="round"/>
<path d="M37.8702 40.9278H57.6108L57.1482 39.3906" stroke="black" stroke-miterlimit="10" stroke-linecap="round"/>
<path d="M37.8702 42.7911H57.6108L57.1482 41.2539" stroke="black" stroke-miterlimit="10" stroke-linecap="round"/>
<path d="M37.8702 44.6544H57.6108L57.1482 43.1172" stroke="black" stroke-miterlimit="10" stroke-linecap="round"/>
<path d="M37.8702 46.5177H57.6108L57.1482 44.9805" stroke="black" stroke-miterlimit="10" stroke-linecap="round"/>
<path d="M37.8702 48.381H57.6108L57.1482 46.8438" stroke="black" stroke-miterlimit="10" stroke-linecap="round"/>
<path d="M37.8702 50.2421H57.6108L57.1482 48.7031" stroke="black" stroke-miterlimit="10" stroke-linecap="round"/>
<path d="M37.8702 52.1054H57.6108L57.1482 50.5664" stroke="black" stroke-miterlimit="10" stroke-linecap="round"/>
<path d="M37.8702 53.9687H57.6108L57.1482 52.4297" stroke="black" stroke-miterlimit="10" stroke-linecap="round"/>
<path d="M37.8702 55.832H57.6108L57.1482 54.293" stroke="black" stroke-miterlimit="10" stroke-linecap="round"/>
<path d="M37.8702 57.6953H57.6108L57.1482 56.1562" stroke="black" stroke-miterlimit="10" stroke-linecap="round"/>
<path d="M37.8702 59.5585H57.6108L57.1482 58.0195" stroke="black" stroke-miterlimit="10" stroke-linecap="round"/>
<path d="M37.8702 61.4218H57.6108L57.1482 59.8828" stroke="black" stroke-miterlimit="10" stroke-linecap="round"/>
</g>
<g opacity="0.3">
<path d="M7.50059 11.0977H4.26059V14.3377H7.50059V11.0977Z" stroke="black" stroke-miterlimit="10" stroke-linecap="round"/>
<path d="M7.50059 16.6172H4.26059V19.8572H7.50059V16.6172Z" stroke="black" stroke-miterlimit="10" stroke-linecap="round"/>
<path d="M8.6994 12.7773H13.6206" stroke="black" stroke-miterlimit="10" stroke-linecap="round"/>
<path d="M8.6994 18.1797H13.6206" stroke="black" stroke-miterlimit="10" stroke-linecap="round"/>
<path d="M4.98059 12.0579L5.45939 13.0173L7.61939 9.77734" stroke="black" stroke-miterlimit="10" stroke-linecap="round"/>
</g>
<g opacity="0.3">
<path d="M55.3806 75.7188H52.1406V78.9588H55.3806V75.7188Z" stroke="black" stroke-miterlimit="10" stroke-linecap="round"/>
<path d="M55.3806 81.2383H52.1406V84.4783H55.3806V81.2383Z" stroke="black" stroke-miterlimit="10" stroke-linecap="round"/>
<path d="M56.5794 77.3984H61.5006" stroke="black" stroke-miterlimit="10" stroke-linecap="round"/>
<path d="M56.5794 82.8008H61.5006" stroke="black" stroke-miterlimit="10" stroke-linecap="round"/>
<path d="M52.8606 76.679L53.3394 77.6384L55.4994 74.3984" stroke="black" stroke-miterlimit="10" stroke-linecap="round"/>
</g>
<g opacity="0.3">
<path d="M66.24 9.35938H63V12.5994H66.24V9.35938Z" stroke="black" stroke-miterlimit="10" stroke-linecap="round"/>
<path d="M66.24 14.8789H63V18.1189H66.24V14.8789Z" stroke="black" stroke-miterlimit="10" stroke-linecap="round"/>
<path d="M67.4406 11.0391H72.36" stroke="black" stroke-miterlimit="10" stroke-linecap="round"/>
<path d="M67.4406 16.4375H72.36" stroke="black" stroke-miterlimit="10" stroke-linecap="round"/>
<path d="M63.72 10.3179L64.2006 11.2791L66.3606 8.03906" stroke="black" stroke-miterlimit="10" stroke-linecap="round"/>
</g>
<path d="M84.6936 80.793H87.372" stroke="#263238" stroke-linecap="round" stroke-linejoin="round"/>
<path d="M4.5 80.793H83.4462" stroke="#263238" stroke-linecap="round" stroke-linejoin="round"/>
<path d="M14.3118 68.7168C15.47 68.7168 16.4088 66.2548 16.4088 63.2178C16.4088 60.1807 15.47 57.7188 14.3118 57.7188C13.1537 57.7188 12.2148 60.1807 12.2148 63.2178C12.2148 66.2548 13.1537 68.7168 14.3118 68.7168Z" fill="#867DEF" stroke="#263238" stroke-miterlimit="10"/>
<path d="M20.8271 59.8303C21.4826 57.7678 21.2859 55.8644 20.3877 55.579C19.4896 55.2935 18.2301 56.7342 17.5746 58.7967C16.9192 60.8592 17.1159 62.7626 18.0141 63.0481C18.9122 63.3335 20.1717 61.8929 20.8271 59.8303Z" fill="#867DEF" stroke="#263238" stroke-miterlimit="10"/>
<path d="M5.44321 72.2651C3.30841 71.9051 1.70641 70.8575 1.86481 69.9251C2.02321 68.9927 3.87901 68.5355 6.00481 68.8973C8.13061 69.2591 9.74161 70.3049 9.58501 71.2373C9.42841 72.1697 7.57621 72.6251 5.44321 72.2651Z" fill="#867DEF" stroke="#263238" stroke-miterlimit="10"/>
<path d="M22.798 67.1839C24.5804 65.4165 25.3642 63.317 24.5487 62.4946C23.7332 61.6723 21.6272 62.4385 19.8448 64.2059C18.0625 65.9734 17.2787 68.0729 18.0942 68.8953C18.9097 69.7176 21.0157 68.9514 22.798 67.1839Z" fill="#867DEF" stroke="#263238" stroke-miterlimit="10"/>
<path d="M10.5174 62.3327C12.24 64.8329 12.7548 67.4699 11.6658 68.2223C10.5768 68.9747 8.29441 67.5545 6.57181 65.0543C4.84921 62.5541 4.33441 59.9189 5.42341 59.1665C6.51241 58.4141 8.79481 59.8325 10.5174 62.3327Z" fill="#867DEF" stroke="#263238" stroke-miterlimit="10"/>
<path d="M14.4594 68.4414L14.6214 76.0014" stroke="#263238" stroke-miterlimit="10" stroke-linecap="round"/>
<path d="M14.2632 61.1719L14.4594 68.4403" stroke="#263238" stroke-miterlimit="10" stroke-linecap="round"/>
<path d="M14.2776 59.9883L14.2632 60.5445" stroke="#263238" stroke-miterlimit="10" stroke-linecap="round"/>
<path d="M11.6568 67.8633C12.8591 70.3473 13.5629 73.0429 13.7286 75.7977" stroke="#263238" stroke-miterlimit="10" stroke-linecap="round"/>
<path d="M8.05679 62.3555C9.49574 64.0237 10.7064 65.876 11.6568 67.8635" stroke="#263238" stroke-miterlimit="10" stroke-linecap="round"/>
<path d="M6.92282 61.1562C6.92282 61.1562 7.14062 61.3543 7.49702 61.7341" stroke="#263238" stroke-miterlimit="10" stroke-linecap="round"/>
<path d="M18.2268 68.6406C16.7559 70.7019 15.6098 72.9765 14.8284 75.3852" stroke="#263238" stroke-miterlimit="10" stroke-linecap="round"/>
<path d="M20.6388 65.8672C19.7504 66.7142 18.9429 67.6422 18.2268 68.6392" stroke="#263238" stroke-miterlimit="10" stroke-linecap="round"/>
<path d="M23.22 63.9023C22.5647 64.2716 21.9494 64.7077 21.384 65.2037" stroke="#263238" stroke-miterlimit="10" stroke-linecap="round"/>
<path d="M18.1386 62.5352C16.9758 66.1892 15.417 71.591 14.6898 76.2782" stroke="#263238" stroke-miterlimit="10" stroke-linecap="round"/>
<path d="M18.846 60.3633C18.639 60.9807 18.3978 61.7115 18.1386 62.5233" stroke="#263238" stroke-miterlimit="10" stroke-linecap="round"/>
<path d="M19.5696 58.2695C19.5696 58.2695 19.368 58.8293 19.0404 59.7887" stroke="#263238" stroke-miterlimit="10" stroke-linecap="round"/>
<path d="M9.48422 70.7305C10.935 71.2795 12.3516 72.3415 13.041 74.3521" stroke="#263238" stroke-miterlimit="10" stroke-linecap="round"/>
<path d="M6.80402 70.1836C7.71951 70.2276 8.62311 70.4096 9.48422 70.7236" stroke="#263238" stroke-miterlimit="10" stroke-linecap="round"/>
<path d="M5.06702 70.2298C5.06702 70.2298 5.32622 70.192 5.75102 70.1758" stroke="#263238" stroke-miterlimit="10" stroke-linecap="round"/>
<path d="M23.7042 72.2651C25.839 71.9051 27.441 70.8575 27.2826 69.9251C27.1242 68.9927 25.2684 68.5355 23.1426 68.8973C21.0168 69.2591 19.4058 70.3049 19.5624 71.2373C19.719 72.1697 21.5712 72.6251 23.7042 72.2651Z" fill="#867DEF" stroke="#263238" stroke-miterlimit="10"/>
<path d="M19.71 70.7109C18.243 71.2509 16.803 72.3183 16.11 74.3505" stroke="#263238" stroke-miterlimit="10" stroke-linecap="round"/>
<path d="M22.5684 70.1758C21.5932 70.2046 20.6286 70.3868 19.71 70.7158" stroke="#263238" stroke-miterlimit="10" stroke-linecap="round"/>
<path d="M24.0804 70.2268C24.0804 70.2268 23.9112 70.2016 23.6178 70.1836" stroke="#263238" stroke-miterlimit="10" stroke-linecap="round"/>
<path d="M19.6794 80.7764C20.3223 79.4264 20.6603 77.9516 20.6694 76.4564C20.6714 75.5589 20.5379 74.6662 20.2734 73.8086H9.1134C8.84893 74.6662 8.71543 75.5589 8.7174 76.4564C8.72625 77.9518 9.06489 79.4269 9.7092 80.7764H19.6794Z" fill="#263238"/>
<path d="M8.82002 75.0391C8.78762 75.2425 8.76422 75.4477 8.74622 75.6565H20.6352C20.6172 75.4477 20.592 75.2425 20.5596 75.0391H8.82002Z" fill="#7A7A7A"/>
<path d="M20.5074 78.1994C20.5452 77.9942 20.5776 77.789 20.6028 77.582H8.77859C8.80199 77.789 8.8344 77.9942 8.8722 78.1994H20.5074Z" fill="#7A7A7A"/>
<path d="M10.1538 76.4824C10.1538 76.5779 10.1255 76.6712 10.0724 76.7506C10.0193 76.83 9.94384 76.8918 9.85558 76.9283C9.76733 76.9647 9.67025 76.9742 9.57662 76.9554C9.48299 76.9366 9.39704 76.8905 9.32965 76.8229C9.26226 76.7552 9.21646 76.6691 9.19805 76.5754C9.17964 76.4817 9.18945 76.3847 9.22624 76.2965C9.26302 76.2084 9.32513 76.1332 9.4047 76.0804C9.48427 76.0276 9.57771 75.9996 9.6732 76C9.80082 76.0005 9.92306 76.0515 10.0131 76.1419C10.1032 76.2323 10.1538 76.3548 10.1538 76.4824Z" fill="#8C8C8C"/>
<path d="M12.5586 76.4824C12.5583 76.5774 12.5298 76.6701 12.4767 76.7489C12.4237 76.8277 12.3485 76.889 12.2607 76.9251C12.1728 76.9612 12.0763 76.9705 11.9831 76.9517C11.89 76.933 11.8046 76.8871 11.7375 76.8198C11.6705 76.7525 11.6249 76.6669 11.6065 76.5737C11.5881 76.4805 11.5977 76.384 11.6342 76.2963C11.6706 76.2086 11.7322 76.1336 11.8112 76.0809C11.8902 76.0281 11.983 76 12.078 76C12.1413 76 12.2039 76.0125 12.2623 76.0368C12.3208 76.061 12.3738 76.0966 12.4185 76.1414C12.4631 76.1862 12.4985 76.2394 12.5225 76.2979C12.5466 76.3564 12.5588 76.4191 12.5586 76.4824Z" fill="#8C8C8C"/>
<path d="M14.9652 76.4824C14.9652 76.5779 14.9369 76.6712 14.8838 76.7506C14.8307 76.83 14.7552 76.8918 14.667 76.9283C14.5787 76.9647 14.4816 76.9742 14.388 76.9554C14.2944 76.9366 14.2084 76.8905 14.1411 76.8229C14.0737 76.7552 14.0279 76.6691 14.0094 76.5754C13.991 76.4817 14.0008 76.3847 14.0376 76.2965C14.0744 76.2084 14.1365 76.1332 14.2161 76.0804C14.2957 76.0276 14.3891 75.9996 14.4846 76C14.6122 76.0005 14.7345 76.0515 14.8245 76.1419C14.9146 76.2323 14.9652 76.3548 14.9652 76.4824Z" fill="#8C8C8C"/>
<path d="M17.37 76.4824C17.3697 76.5774 17.3412 76.6701 17.2881 76.7489C17.2351 76.8277 17.1599 76.889 17.0721 76.9251C16.9842 76.9612 16.8877 76.9705 16.7946 76.9517C16.7014 76.933 16.616 76.8871 16.5489 76.8198C16.4819 76.7525 16.4363 76.6669 16.4179 76.5737C16.3995 76.4805 16.4091 76.384 16.4456 76.2963C16.482 76.2086 16.5436 76.1336 16.6226 76.0809C16.7016 76.0281 16.7944 76 16.8894 76C16.9527 76 17.0153 76.0125 17.0737 76.0368C17.1322 76.061 17.1852 76.0966 17.2299 76.1414C17.2745 76.1862 17.3099 76.2394 17.3339 76.2979C17.358 76.3564 17.3702 76.4191 17.37 76.4824Z" fill="#8C8C8C"/>
<path d="M19.7766 76.4824C19.7766 76.5779 19.7483 76.6712 19.6952 76.7506C19.6421 76.83 19.5666 76.8918 19.4784 76.9283C19.3901 76.9647 19.293 76.9742 19.1994 76.9554C19.1058 76.9366 19.0198 76.8905 18.9525 76.8229C18.8851 76.7552 18.8393 76.6691 18.8208 76.5754C18.8024 76.4817 18.8122 76.3847 18.849 76.2965C18.8858 76.2084 18.9479 76.1332 19.0275 76.0804C19.1071 76.0276 19.2005 75.9996 19.296 76C19.4236 76.0005 19.5459 76.0515 19.6359 76.1419C19.726 76.2323 19.7766 76.3548 19.7766 76.4824Z" fill="#8C8C8C"/>
<path d="M84.3192 15.2031H42.1488V74.8335H84.3192V15.2031Z" fill="#263238"/>
<path d="M83.277 14.1602H41.1066V73.7906H83.277V14.1602Z" fill="white" stroke="#263238" stroke-linecap="round" stroke-linejoin="round"/>
<path d="M81.207 20.0781H42.8832V30.8799H81.207V20.0781Z" fill="white" stroke="#263238" stroke-linecap="round" stroke-linejoin="round"/>
<path d="M55.4598 17.8594H42.8832V20.0788H55.4598V17.8594Z" fill="white" stroke="#263238" stroke-linecap="round" stroke-linejoin="round"/>
<path d="M81.2052 17.8594H68.6286V20.0788H81.2052V17.8594Z" fill="white" stroke="#263238" stroke-linecap="round" stroke-linejoin="round"/>
<path d="M42.8832 23.6289H81.207" stroke="#263238" stroke-linecap="round" stroke-linejoin="round"/>
<path d="M42.8832 27.0352H81.207" stroke="#263238" stroke-linecap="round" stroke-linejoin="round"/>
<path d="M81.207 34.207H42.8832V45.0088H81.207V34.207Z" fill="white" stroke="#263238" stroke-linecap="round" stroke-linejoin="round"/>
<path d="M42.8832 37.7578H81.207" stroke="#263238" stroke-linecap="round" stroke-linejoin="round"/>
<path d="M42.8832 41.1602H81.207" stroke="#263238" stroke-linecap="round" stroke-linejoin="round"/>
<path d="M43.5078 20.9453H48.168" stroke="#263238" stroke-linecap="round" stroke-linejoin="round"/>
<path d="M67.275 20.9453H71.9352" stroke="#263238" stroke-linecap="round" stroke-linejoin="round"/>
<path d="M43.5078 18.418H48.168" stroke="#263238" stroke-linecap="round" stroke-linejoin="round"/>
<path d="M68.8248 18.418H73.485" stroke="#263238" stroke-linecap="round" stroke-linejoin="round"/>
<path d="M43.5078 24.3125H48.168" stroke="#263238" stroke-linecap="round" stroke-linejoin="round"/>
<path d="M43.5078 28.0195H48.168" stroke="#263238" stroke-linecap="round" stroke-linejoin="round"/>
<path d="M57.9006 28.0195H62.559" stroke="#263238" stroke-linecap="round" stroke-linejoin="round"/>
<path d="M57.15 18.0273H66.4686" stroke="#263238" stroke-linecap="round" stroke-linejoin="round"/>
<path d="M57.15 18.9805H66.4686" stroke="#263238" stroke-linecap="round" stroke-linejoin="round"/>
<path d="M56.2104 30.0312H58.3236" stroke="#263238" stroke-linecap="round" stroke-linejoin="round"/>
<path d="M58.851 30.0312H60.9642" stroke="#263238" stroke-linecap="round" stroke-linejoin="round"/>
<path d="M61.4916 30.0312H63.6048" stroke="#263238" stroke-linecap="round" stroke-linejoin="round"/>
<path d="M81.207 47.2773H42.8832V58.0791H81.207V47.2773Z" fill="white" stroke="#263238" stroke-linecap="round" stroke-linejoin="round"/>
<path d="M43.7238 50.0581C43.7238 50.0581 44.4438 48.2761 44.0082 48.7027C43.5726 49.1293 43.2234 50.6287 44.2926 50.2723C45.3618 49.9159 46.0746 48.3463 45.7902 48.9889C45.5058 49.6315 45.648 50.1283 46.5102 49.6297C47.3724 49.1311 47.5074 49.1311 47.5794 49.4155C47.6514 49.6999 47.8638 49.6297 48.6486 49.3453C49.4334 49.0609 49.3686 49.5595 49.3686 49.7719C49.3686 49.9843 50.3676 49.9159 50.724 49.7719C51.0804 49.6279 51.3648 49.2031 51.444 49.7017C51.5232 50.2003 52.227 50.2003 52.227 50.2003H54.1512" stroke="#867DEF" stroke-linecap="round" stroke-linejoin="round"/>
<path d="M42.8832 50.8281H81.207" stroke="#263238" stroke-linecap="round" stroke-linejoin="round"/>
<path d="M42.8832 54.2344H81.207" stroke="#263238" stroke-linecap="round" stroke-linejoin="round"/>
<path d="M43.5078 48.1445H48.168" stroke="#263238" stroke-linecap="round" stroke-linejoin="round"/>
<path d="M67.275 48.1445H71.9352" stroke="#263238" stroke-linecap="round" stroke-linejoin="round"/>
<path d="M43.5078 51.5156H48.168" stroke="#263238" stroke-linecap="round" stroke-linejoin="round"/>
<path d="M43.5078 55.2188H48.168" stroke="#263238" stroke-linecap="round" stroke-linejoin="round"/>
<path d="M57.9006 55.2188H62.559" stroke="#263238" stroke-linecap="round" stroke-linejoin="round"/>
<path d="M56.2104 57.2305H58.3236" stroke="#263238" stroke-linecap="round" stroke-linejoin="round"/>
<path d="M58.851 57.2305H60.9642" stroke="#263238" stroke-linecap="round" stroke-linejoin="round"/>
<path d="M61.4916 57.2305H63.6048" stroke="#263238" stroke-linecap="round" stroke-linejoin="round"/>
<path d="M43.7994 35.3125H54.7578" stroke="#263238" stroke-linecap="round" stroke-linejoin="round"/>
<path d="M43.7994 38.8789H50.5332" stroke="#263238" stroke-linecap="round" stroke-linejoin="round"/>
<path d="M60.831 38.8789H67.5648" stroke="#263238" stroke-linecap="round" stroke-linejoin="round"/>
<path d="M71.3952 43.3672H78.129" stroke="#263238" stroke-linecap="round" stroke-linejoin="round"/>
<path d="M69.9426 38.8789H76.6764" stroke="#263238" stroke-linecap="round" stroke-linejoin="round"/>
<path d="M70.2054 42.5742H68.6214V44.1582H70.2054V42.5742Z" stroke="#263238" stroke-linecap="round" stroke-linejoin="round"/>
<path d="M60.435 43.3672H67.1688" stroke="#263238" stroke-linecap="round" stroke-linejoin="round"/>
<path d="M59.247 42.5742H57.663V44.1582H59.247V42.5742Z" stroke="#263238" stroke-linecap="round" stroke-linejoin="round"/>
<path d="M49.4766 43.3672H56.2104" stroke="#263238" stroke-linecap="round" stroke-linejoin="round"/>
<path d="M48.2868 42.5742H46.7028V44.1582H48.2868V42.5742Z" stroke="#263238" stroke-linecap="round" stroke-linejoin="round"/>
<path d="M76.617 60.1367H81.0324" stroke="#263238" stroke-linecap="round" stroke-linejoin="round"/>
<path d="M59.0922 60.1367H76.0482" stroke="#263238" stroke-linecap="round" stroke-linejoin="round"/>
<path d="M48.168 60.1367H58.581" stroke="#263238" stroke-linecap="round" stroke-linejoin="round"/>
<path d="M43.1388 60.1367H47.7684" stroke="#263238" stroke-linecap="round" stroke-linejoin="round"/>
<path d="M71.3826 61.1602H81.0324" stroke="#263238" stroke-linecap="round" stroke-linejoin="round"/>
<path d="M52.947 61.1602H70.9272" stroke="#263238" stroke-linecap="round" stroke-linejoin="round"/>
<path d="M43.1388 61.1602H52.3782" stroke="#263238" stroke-linecap="round" stroke-linejoin="round"/>
<path d="M73.8864 62.1836H81.0324" stroke="#263238" stroke-linecap="round" stroke-linejoin="round"/>
<path d="M58.5234 62.1836H73.4886" stroke="#263238" stroke-linecap="round" stroke-linejoin="round"/>
<path d="M49.761 62.1836H57.726" stroke="#263238" stroke-linecap="round" stroke-linejoin="round"/>
<path d="M43.1388 62.1836H49.248" stroke="#263238" stroke-linecap="round" stroke-linejoin="round"/>
<path d="M77.8122 63.207H81.0324" stroke="#263238" stroke-linecap="round" stroke-linejoin="round"/>
<path d="M45.549 63.207H77.2434" stroke="#263238" stroke-linecap="round" stroke-linejoin="round"/>
<path d="M43.1388 63.207H45.0954" stroke="#263238" stroke-linecap="round" stroke-linejoin="round"/>
<path d="M78.552 64.2344H81.0324" stroke="#263238" stroke-linecap="round" stroke-linejoin="round"/>
<path d="M70.6428 64.2344H78.0408" stroke="#263238" stroke-linecap="round" stroke-linejoin="round"/>
<path d="M58.5234 64.2344H70.245" stroke="#263238" stroke-linecap="round" stroke-linejoin="round"/>
<path d="M47.1996 64.2344H58.068" stroke="#263238" stroke-linecap="round" stroke-linejoin="round"/>
<path d="M43.1388 64.2344H46.5732" stroke="#263238" stroke-linecap="round" stroke-linejoin="round"/>
<path d="M76.5612 65.2578H81.0324" stroke="#263238" stroke-linecap="round" stroke-linejoin="round"/>
<path d="M62.2224 65.2578H75.9348" stroke="#263238" stroke-linecap="round" stroke-linejoin="round"/>
<path d="M52.947 65.2578H61.4826" stroke="#263238" stroke-linecap="round" stroke-linejoin="round"/>
<path d="M43.1388 65.2578H52.3782" stroke="#263238" stroke-linecap="round" stroke-linejoin="round"/>
<path d="M70.0164 66.2812H81.0324" stroke="#263238" stroke-linecap="round" stroke-linejoin="round"/>
<path d="M48.168 66.2812H69.2208" stroke="#263238" stroke-linecap="round" stroke-linejoin="round"/>
<path d="M43.1388 66.2812H47.5416" stroke="#263238" stroke-linecap="round" stroke-linejoin="round"/>
<path d="M43.5348 69.3789H48.2886" stroke="#263238" stroke-linecap="round" stroke-linejoin="round"/>
<path d="M67.0374 69.3789H71.7912" stroke="#263238" stroke-linecap="round" stroke-linejoin="round"/>
<path d="M49.4766 69.3789H65.4534" stroke="#263238" stroke-linecap="round" stroke-linejoin="round"/>
<path d="M73.1106 69.3789H80.901" stroke="#263238" stroke-linecap="round" stroke-linejoin="round"/>
<path d="M44.1288 37.314C44.1288 37.314 44.8632 37.4832 45.0288 36.6354C45.1944 35.7876 44.5194 36.2394 44.5194 36.6912C44.5194 37.143 44.7462 37.5912 45.5994 36.918C46.4526 36.2448 46.2204 36.3528 46.7298 36.8604C47.2392 37.368 46.7856 37.4832 47.8098 37.0872C48.834 36.6912 48.8898 36.8604 48.8268 37.2006C48.7638 37.5408 48.5442 37.3698 49.5054 37.0314C50.4666 36.693 50.9184 36.4086 50.805 36.8514C50.6916 37.2942 50.2956 37.4166 51.03 36.909C51.7644 36.4014 52.218 34.7616 51.5952 36.009C50.9724 37.2564 50.7474 37.089 51.6528 36.909C52.5582 36.729 52.839 36.117 52.839 36.5688C52.839 37.0206 52.1046 37.305 52.839 37.0224C53.5734 36.7398 53.856 36.4572 53.856 36.7398C53.856 37.0224 53.1774 37.53 54.1386 37.0782C55.0998 36.6264 55.3824 36.117 55.3824 36.513C55.3824 36.909 55.2114 36.7956 55.3824 36.909C55.5534 37.0224 55.2114 36.6822 55.7208 36.8514C56.2302 37.0206 56.0034 37.3608 56.7378 37.0782C57.4722 36.7956 57.4164 36.3996 57.8178 36.7956C58.2192 37.1916 57.8178 37.7568 58.8978 37.2474C59.9778 36.738 60.2532 37.0224 60.5934 37.0782C60.8739 37.1211 61.1575 37.1398 61.4412 37.134C61.6662 37.134 61.6104 36.909 62.1756 37.134C62.5112 37.2982 62.8824 37.3761 63.2556 37.3608H63.9" stroke="#867DEF" stroke-linecap="round" stroke-linejoin="round"/>
<path d="M67.3524 37.3719C67.623 37.2549 67.8869 37.1227 68.1426 36.9759C68.652 36.6933 69.9516 35.7339 70.0074 36.3549C70.0632 36.9759 68.5944 37.7679 68.7654 37.0893C68.9364 36.4107 69.9516 36.7509 70.686 37.0335C71.4204 37.3161 71.586 36.9759 72.495 36.9759C73.404 36.9759 73.2852 37.2585 73.737 37.3719C74.1888 37.4853 74.0196 37.3719 74.817 37.0335C75.6144 36.6951 75.042 35.0535 74.5344 36.1857C74.0268 37.3179 73.8558 37.7679 75.042 37.2027C76.2282 36.6375 75.8898 37.3161 76.059 37.3161C76.2282 37.3161 75.9456 37.3719 76.6242 37.0893C77.3028 36.8067 76.455 37.2027 76.9644 37.3161C77.4738 37.4295 77.7546 36.8625 78.2064 36.6933C78.6582 36.5241 78.7158 37.0335 78.7158 37.0335H79.1676" stroke="#867DEF" stroke-linecap="round" stroke-linejoin="round"/>
<path d="M43.7886 26.4596C43.7886 26.4596 44.0712 26.3462 44.523 25.6694C44.9748 24.9926 44.2404 24.7694 44.0712 25.5002C43.902 26.231 43.506 27.0824 44.7498 26.4596C45.9936 25.8368 45.54 24.6596 45.1458 25.5596C44.7516 26.4596 44.8632 27.3686 46.0458 26.69C47.2284 26.0114 47.3454 25.61 47.5146 25.9556C47.6838 26.3012 47.0628 26.4074 48.0798 26.4632C49.0968 26.519 49.266 26.1806 49.7178 26.0114C50.1696 25.8422 50.3964 26.0114 50.3964 26.0114C50.5248 26.0501 50.6583 26.0695 50.7924 26.069C51.0174 26.069 51.3 25.889 51.4134 26.069C51.5268 26.249 50.283 26.4632 51.7536 26.2382C53.2242 26.0132 53.5536 25.0502 53.6742 25.7864C53.7948 26.5226 52.6572 27.1418 52.6572 26.4632C52.6572 25.7846 53.3358 25.1078 54.4086 25.7288C55.4814 26.3498 55.4256 26.5208 55.9908 26.6288C56.556 26.7368 57.4596 26.1212 57.4596 26.1212C57.4596 26.1212 57.4038 26.177 57.7422 26.3462C58.0806 26.5154 57.969 26.5172 58.59 26.3462C59.211 26.1752 58.7034 26.2904 59.5512 26.177C60.399 26.0636 60.7932 26.1212 60.4512 26.4038C60.1092 26.6864 59.1516 26.2904 60.3954 26.0654C61.6392 25.8404 61.8066 26.2346 61.8066 26.4038C61.8066 26.573 62.1468 26.6288 62.4294 26.5172C62.7054 26.4313 62.9895 26.374 63.2772 26.3462" stroke="#867DEF" stroke-linecap="round" stroke-linejoin="round"/>
<path d="M45.2574 23.1302C45.7119 23.0547 46.1597 22.9433 46.5966 22.7972C46.9692 22.6658 47.3166 22.493 47.4624 22.2824C47.8566 21.7172 46.6704 21.8864 45.936 22.6226C45.2016 23.3588 46.3878 23.4128 47.916 22.9052C49.4442 22.3976 49.3848 21.0962 48.3678 22.0574C47.3508 23.0186 47.7468 23.2436 49.329 22.9052C50.9112 22.5668 52.8876 22.169 52.2666 22.7252C51.6456 23.2814 51.4764 23.0078 52.5492 22.7828C53.622 22.5578 54.3006 22.0484 54.1314 22.4426C53.9622 22.8368 53.5104 23.3426 54.3582 22.952C55.206 22.5614 55.0926 22.952 55.0926 22.952C56.6172 22.7828 57.465 20.8604 56.3922 21.539C55.3194 22.2176 55.3122 23.1212 56.2788 23.0654C57.2454 23.0096 58.1436 22.1042 57.6918 22.556C57.24 23.0078 56.5056 23.348 58.086 22.952C59.6664 22.556 60.1776 21.7082 60.066 22.2734C59.9544 22.8386 59.8968 22.7828 60.462 22.7828C61.0272 22.7828 62.0442 21.9908 61.7058 22.556C61.3674 23.1212 61.1964 23.177 61.7058 23.0654C62.2152 22.9538 62.9478 22.556 63.1746 22.556C63.4014 22.556 62.7228 23.177 63.3996 23.1212C64.0764 23.0654 65.4912 22.2212 65.4912 22.2212" stroke="#867DEF" stroke-linecap="round" stroke-linejoin="round"/>
<path d="M63.9 22.2266C63.9 22.2266 65.313 23.186 65.6514 23.186" stroke="#867DEF" stroke-linecap="round" stroke-linejoin="round"/>
<path d="M58.0464 42.9784L58.2138 43.7632L59.9508 41.6914" stroke="#867DEF" stroke-linecap="round" stroke-linejoin="round"/>
<path d="M38.8386 77.168L40.2534 78.5468C40.2534 78.5468 43.4826 79.7438 43.6284 79.9616C43.7742 80.1794 43.6284 80.7968 43.6284 80.7968H36.1908L36.387 77.834L38.8386 77.168Z" fill="white" stroke="#263238" stroke-linecap="round" stroke-linejoin="round"/>
<path d="M43.6914 80.3242H36.2232L36.1908 80.7958H43.6284C43.6628 80.6407 43.6839 80.4829 43.6914 80.3242Z" fill="white" stroke="#263238" stroke-linecap="round" stroke-linejoin="round"/>
<path d="M23.5566 53.498L24.5772 65.558C24.5772 65.558 23.76 72.821 23.76 73.541C23.76 74.261 23.4 76.601 23.4 76.601L25.8606 76.9016L29.142 64.4816L29.6226 59.4416L33.642 68.501L36.3924 77.8358L38.844 77.1698L36.9432 65.2016L33.417 53.921L33.1632 52.6016L23.562 52.7204L23.5566 53.498Z" fill="#263238" stroke="#263238" stroke-linecap="round" stroke-linejoin="round"/>
<path d="M23.4 76.6016L22.68 78.5672C22.68 78.5672 21.339 80.126 21.447 80.4176C21.477 80.5003 21.5248 80.5753 21.587 80.6375C21.6492 80.6998 21.7243 80.7476 21.807 80.7776H25.1442C25.2285 80.7576 25.3048 80.7124 25.363 80.6482C25.4212 80.5839 25.4585 80.5035 25.47 80.4176C25.5173 80.1538 25.5414 79.8864 25.542 79.6184L25.857 76.9022L23.4 76.6016Z" fill="white" stroke="#263238" stroke-linecap="round" stroke-linejoin="round"/>
<path d="M25.4682 80.4192C25.479 80.3724 25.488 80.3238 25.4952 80.2734H21.4578C21.4376 80.3192 21.432 80.3701 21.4416 80.4192C21.4716 80.5019 21.5194 80.577 21.5816 80.6392C21.6438 80.7014 21.7189 80.7492 21.8016 80.7792H25.1388C25.2238 80.7599 25.3009 80.715 25.3598 80.6507C25.4186 80.5864 25.4564 80.5056 25.4682 80.4192Z" fill="white" stroke="#263238" stroke-linecap="round" stroke-linejoin="round"/>
<path d="M26.9766 36.2344C26.9766 36.2344 23.8266 36.4144 22.8816 37.0444C21.9366 37.6744 17.3466 41.4544 17.3466 41.4544L17.5824 45.3856L22.6566 41.7244L23.3766 54.4144L33.4116 53.9194L33.1866 46.8544L33.0516 46.6294C33.0516 46.6294 36.2916 49.9594 37.5066 49.8694C38.7216 49.7794 38.9916 47.7544 38.0916 46.4944C37.1916 45.2344 35.8416 43.4344 34.8966 42.0844C33.9516 40.7344 33.9516 38.7544 32.5566 37.8094C31.1616 36.8644 28.7316 36.3244 28.7316 36.3244L26.9766 36.2344Z" fill="#867DEF" stroke="#263238" stroke-linecap="round" stroke-linejoin="round"/>
<path d="M33.1866 46.8556L32.9904 42.793" stroke="#263238" stroke-linecap="round" stroke-linejoin="round"/>
<path d="M33.633 44.4075L33.7482 43.7109" stroke="#263238" stroke-linecap="round" stroke-linejoin="round"/>
<path d="M33.2604 46.6418L33.5502 44.9102" stroke="#263238" stroke-linecap="round" stroke-linejoin="round"/>
<path d="M29.0682 49.2383L29.52 49.7315" stroke="#263238" stroke-linecap="round" stroke-linejoin="round"/>
<path d="M24.2082 43.9297L28.7838 48.9247" stroke="#263238" stroke-linecap="round" stroke-linejoin="round"/>
<path d="M25.8516 47.1797L27.6228 48.9167" stroke="#263238" stroke-linecap="round" stroke-linejoin="round"/>
<path d="M24.966 46.3164L25.4754 46.815" stroke="#263238" stroke-linecap="round" stroke-linejoin="round"/>
<path d="M24.1542 40.7305L22.6566 41.7223L24.1002 41.5981" stroke="#263238" stroke-linecap="round" stroke-linejoin="round"/>
<path d="M26.6652 32.5625C26.7647 33.2494 26.8188 33.9421 26.8272 34.6361C26.8199 35.3164 26.7658 35.9954 26.6652 36.6683C26.6652 36.6683 28.6974 39.7589 29.0628 40.0019C29.4282 40.2449 29.673 39.1883 29.673 38.7419C29.673 38.2955 29.7144 36.9941 29.7144 36.9941V35.5307L26.6652 32.5625Z" fill="#B0B0B0" stroke="#263238" stroke-linecap="round" stroke-linejoin="round"/>
<path d="M29.7 37.1965C29.7 37.0741 29.7 36.9967 29.7 36.9967V35.5333L29.0088 34.8619L27.3222 34.1797L29.7 37.1965Z" fill="#263238" stroke="#263238" stroke-linecap="round" stroke-linejoin="round"/>
<path d="M31.6242 28.4957C31.6242 28.4957 32.112 30.0815 32.1534 30.7313C32.1948 31.3811 31.8276 31.8707 31.8276 32.0741C31.8276 32.2775 32.3964 33.0893 32.3964 33.3755C32.3964 33.6617 31.7052 34.0253 31.7052 34.0253C31.7052 34.0253 31.4208 35.5301 30.69 36.0179C29.9592 36.5057 28.2906 35.3267 27.6408 34.7165C27.0974 34.2255 26.7026 33.5919 26.5014 32.8877C26.298 32.2361 26.5428 30.7277 26.9496 29.5127C27.0983 29.0086 27.3875 28.5573 27.7835 28.2117C28.1794 27.8662 28.6657 27.6406 29.1852 27.5615C30.1194 27.3977 31.5 27.9269 31.6242 28.4957Z" fill="#B0B0B0" stroke="#263238" stroke-linecap="round" stroke-linejoin="round"/>
<path d="M31.014 32.3417C31.014 32.5325 30.951 32.6873 30.8718 32.6873C30.7926 32.6873 30.7296 32.5325 30.7296 32.3417C30.7296 32.1509 30.7944 31.9961 30.8718 31.9961C30.9492 31.9961 31.014 32.1509 31.014 32.3417Z" fill="#263238"/>
<path d="M30.6 31.6285C30.6 31.6285 31.1706 31.3441 31.5 31.7113" stroke="#263238" stroke-linecap="round" stroke-linejoin="round"/>
<path d="M30.933 34.6383C30.933 34.6383 30.0798 34.3539 30.033 33.7383" stroke="#263238" stroke-linecap="round" stroke-linejoin="round"/>
<path d="M26.82 32.4143C26.82 32.4143 27.5922 32.5367 27.6732 32.1299C27.7542 31.7231 27.2664 31.6421 27.7956 31.2767C28.3248 30.9113 28.6956 30.9167 28.8522 30.6665C29.0088 30.4163 28.7874 30.0293 29.0718 29.3795C29.3562 28.7297 29.6982 28.8971 30.5118 29.0195C30.9874 29.086 31.4454 29.245 31.86 29.4875C31.86 29.4875 32.3604 28.4291 31.8312 27.8189C31.302 27.2087 29.6226 26.5895 27.7524 27.1583C25.8822 27.7271 25.3152 29.0807 25.1532 30.5441C24.9912 32.0075 25.56 32.8211 26.1 32.9831C26.64 33.1451 26.82 32.4143 26.82 32.4143Z" fill="#263238" stroke="#263238" stroke-linecap="round" stroke-linejoin="round"/>
<path d="M27.234 32.3186C27.234 32.3186 26.7462 30.8156 26.334 31.5878C25.9218 32.36 26.1306 33.0098 26.5374 33.2546C26.586 33.288 26.6419 33.3094 26.7003 33.3169C26.7588 33.3245 26.8183 33.3182 26.8738 33.2983C26.9293 33.2784 26.9793 33.2457 27.0197 33.2027C27.0601 33.1598 27.0898 33.1078 27.1062 33.0512" fill="#B0B0B0"/>
<path d="M27.234 32.3186C27.234 32.3186 26.7462 30.8156 26.334 31.5878C25.9218 32.36 26.1306 33.0098 26.5374 33.2546C26.586 33.288 26.6419 33.3094 26.7003 33.3169C26.7588 33.3245 26.8183 33.3182 26.8738 33.2983C26.9293 33.2784 26.9793 33.2457 27.0197 33.2027C27.0601 33.1598 27.0898 33.1078 27.1062 33.0512" stroke="#263238" stroke-linecap="round" stroke-linejoin="round"/>
<path d="M36.2196 47.7157C36.738 46.7635 39.033 43.9609 39.033 43.9609L40.5288 44.6809C40.5288 44.6809 39.3966 48.8065 38.853 49.3951C38.3094 49.9837 37.7118 50.1835 37.0764 49.7299" fill="#B0B0B0"/>
<path d="M36.2196 47.7157C36.738 46.7635 39.033 43.9609 39.033 43.9609L40.5288 44.6809C40.5288 44.6809 39.3966 48.8065 38.853 49.3951C38.3094 49.9837 37.7118 50.1835 37.0764 49.7299" stroke="#263238" stroke-linecap="round" stroke-linejoin="round"/>
<path d="M37.1088 49.7029C37.3978 49.8618 37.7331 49.9153 38.0572 49.8542C38.3812 49.7931 38.674 49.6213 38.8854 49.3681C39.0492 49.1881 39.267 48.6895 39.4902 48.0793C38.9675 48.1932 38.4216 48.1245 37.9435 47.8847C37.4653 47.645 37.0837 47.2486 36.8622 46.7617C36.5917 47.1065 36.3582 47.4787 36.1656 47.8723C36.1476 47.9281 36.297 48.6175 36.288 48.6679" fill="#867DEF"/>
<path d="M37.1088 49.7029C37.3978 49.8618 37.7331 49.9153 38.0572 49.8542C38.3812 49.7931 38.674 49.6213 38.8854 49.3681C39.0492 49.1881 39.267 48.6895 39.4902 48.0793C38.9675 48.1932 38.4216 48.1245 37.9435 47.8847C37.4653 47.645 37.0837 47.2486 36.8622 46.7617C36.5917 47.1065 36.3582 47.4787 36.1656 47.8723C36.1476 47.9281 36.297 48.6175 36.288 48.6679" stroke="#263238" stroke-linecap="round" stroke-linejoin="round"/>
<path d="M54.1296 50.2607C54.0944 50.2611 54.0595 50.2544 54.027 50.2409L52.1064 49.4435C52.0729 49.4305 52.0423 49.4109 52.0165 49.3858C51.9906 49.3608 51.97 49.3309 51.9559 49.2978C51.9418 49.2647 51.9344 49.2292 51.9343 49.1932C51.9341 49.1572 51.9411 49.1216 51.9549 49.0883C51.9687 49.0551 51.989 49.025 52.0146 48.9997C52.0402 48.9745 52.0706 48.9546 52.104 48.9412C52.1374 48.9278 52.1731 48.9213 52.2091 48.9219C52.245 48.9226 52.2805 48.9304 52.3134 48.9449L54.234 49.7423C54.2911 49.7667 54.3382 49.81 54.3671 49.8649C54.396 49.9199 54.4051 49.9831 54.3929 50.044C54.3806 50.1049 54.3477 50.1597 54.2998 50.1992C54.2518 50.2387 54.1917 50.2604 54.1296 50.2607Z" fill="white" stroke="#263238" stroke-linecap="round" stroke-linejoin="round"/>
<path d="M48.1338 48.8645L5.445 29.7035C5.11842 29.5564 4.86354 29.2858 4.73631 28.9511C4.60908 28.6163 4.6199 28.2447 4.7664 27.9179C4.91306 27.5914 5.18334 27.3366 5.51783 27.2093C5.85232 27.0821 6.22365 27.0928 6.5502 27.2393L49.239 46.4003L48.1338 48.8645Z" fill="white" stroke="#263238" stroke-linecap="round" stroke-linejoin="round"/>
<path d="M11.2392 29.3415L6.5592 27.2373C6.23242 27.0895 5.86034 27.0776 5.5248 27.2042C5.18926 27.3308 4.91775 27.5855 4.77 27.9123C4.62225 28.2391 4.61035 28.6111 4.73694 28.9467C4.86353 29.2822 5.11822 29.5537 5.445 29.7015L10.017 31.7679L11.2392 29.3415Z" fill="white" stroke="#263238" stroke-linecap="round" stroke-linejoin="round"/>
<path d="M49.239 46.3984L53.5122 49.3252L53.2458 49.894L48.1338 48.8626L49.239 46.3984Z" fill="white" stroke="#263238" stroke-linecap="round" stroke-linejoin="round"/>
<path d="M10.1052 28.8348L6.55021 27.24C6.227 27.1115 5.86668 27.1128 5.54435 27.2434C5.22202 27.3741 4.96256 27.6241 4.82006 27.9414C4.67755 28.2587 4.663 28.6187 4.77942 28.9464C4.89585 29.2742 5.13428 29.5443 5.44501 29.7006L8.85061 31.2288L10.1052 28.8348Z" fill="#867DEF" stroke="#263238" stroke-linecap="round" stroke-linejoin="round"/>
<path d="M14.4216 31.6441C14.4216 31.6441 14.0616 33.5791 14.3316 33.9391C14.6016 34.2991 16.0866 35.6491 16.0866 35.6491C16.0866 35.6491 15.5016 43.5241 15.6366 44.2441C15.7716 44.9641 17.3016 45.5041 17.7966 45.3691C18.2916 45.2341 18.6516 44.6941 19.1016 43.7041C19.5516 42.7141 17.5266 35.7841 17.5266 35.4691C17.5266 35.1541 16.5816 32.7241 16.5816 32.7241C16.5816 32.7241 17.3466 32.1841 17.4816 32.0041C17.6166 31.8241 16.9416 31.9591 16.8066 31.9591C16.3645 31.908 15.9277 31.8176 15.5016 31.6891C15.3216 31.5991 14.4216 31.6441 14.4216 31.6441Z" fill="#B0B0B0" stroke="#263238" stroke-linecap="round" stroke-linejoin="round"/>
<path d="M16.5996 31.9492C16.5996 31.9492 15.9624 32.1094 15.9858 32.2678C16.0092 32.4262 16.0092 33.4288 16.0092 33.4288" fill="white"/>
<path d="M16.5996 31.9492C16.5996 31.9492 15.9624 32.1094 15.9858 32.2678C16.0092 32.4262 16.0092 33.4288 16.0092 33.4288" stroke="#263238" stroke-linecap="round" stroke-linejoin="round"/>
<path d="M15.6222 31.7895C15.6222 31.7895 15.0822 31.7661 15.0822 32.0631V33.3141" fill="white"/>
<path d="M15.6222 31.7895C15.6222 31.7895 15.0822 31.7661 15.0822 32.0631V33.3141" stroke="#263238" stroke-linecap="round" stroke-linejoin="round"/>
<path d="M14.4144 31.7656L14.5062 33.3136" stroke="#263238" stroke-linecap="round" stroke-linejoin="round"/>
<path d="M17.7966 45.3606C18.2916 45.2256 18.6516 44.6856 19.1016 43.6956C19.2726 43.323 19.089 42.1044 18.7974 40.7148C18.3515 41.0149 17.8403 41.2041 17.3065 41.2667C16.7727 41.3293 16.2317 41.2635 15.7284 41.0748C15.6402 42.621 15.5844 43.9656 15.6366 44.2446C15.7716 44.9628 17.3016 45.5028 17.7966 45.3606Z" fill="#867DEF" stroke="#263238" stroke-linecap="round" stroke-linejoin="round"/>
<path d="M39.0168 41.8047C39.2032 41.6475 39.4408 41.5642 39.6846 41.5707C40.0446 41.6049 40.1184 42.1395 40.0842 42.6057C40.05 43.0719 39.5442 43.1745 39.483 42.8739C39.4218 42.5733 39.3498 42.1053 39.3498 42.1053L39.0168 41.8047Z" fill="#B0B0B0" stroke="#263238" stroke-linecap="round" stroke-linejoin="round"/>
<path d="M40.0176 41.7713C40.142 41.7349 40.2753 41.7454 40.3924 41.8008C40.5095 41.8562 40.6023 41.9527 40.653 42.0719C40.8528 42.5057 40.6188 43.0727 40.3848 43.1069C40.1508 43.1411 40.0842 42.6047 40.0842 42.6047L40.0176 41.7713Z" fill="#B0B0B0" stroke="#263238" stroke-linecap="round" stroke-linejoin="round"/>
<path d="M40.653 42.0744C40.6981 42.0514 40.748 42.0393 40.7987 42.0391C40.8493 42.0388 40.8993 42.0505 40.9446 42.073C40.99 42.0956 41.0294 42.1285 41.0597 42.1691C41.09 42.2096 41.1104 42.2567 41.1192 42.3066C41.2542 42.708 41.3874 43.2066 41.0868 43.2066C40.7862 43.2066 40.6854 42.6666 40.6854 42.6666L40.653 42.0744Z" fill="#B0B0B0" stroke="#263238" stroke-linecap="round" stroke-linejoin="round"/>
<path d="M41.1192 42.302C41.1192 42.302 41.5548 42.2696 41.6592 42.536C41.7636 42.8024 41.9598 43.3046 41.5926 43.3046C41.4936 43.3046 41.2596 42.8366 41.2596 42.8366L41.1192 42.302Z" fill="#B0B0B0" stroke="#263238" stroke-linecap="round" stroke-linejoin="round"/>
</svg>
