<svg width="42" height="42" viewBox="0 0 42 42" fill="none" xmlns="http://www.w3.org/2000/svg">
<circle cx="21" cy="21" r="21" fill="#FFCB33" fill-opacity="0.8"/>
<path d="M21.3067 22.5354C22.9625 22.5354 26.8557 20.5426 26.8557 15.7676C26.8558 12.03 26.3512 9 21.3067 9C16.2622 9 15.7577 12.03 15.7577 15.7677C15.7577 20.5426 19.6508 22.5354 21.3067 22.5354ZM16.587 14.6382C16.9768 13.8844 17.8199 13.0133 19.6332 13.0519C19.6332 13.0519 20.7139 15.6734 26.0198 14.4961C26.0412 14.9149 26.048 15.3422 26.048 15.7677C26.048 18.1017 25.0174 19.5479 24.1528 20.35C23.0634 21.3608 21.8539 21.7277 21.3067 21.7277C20.7595 21.7277 19.55 21.3608 18.4606 20.35C17.596 19.5479 16.5654 18.1017 16.5654 15.7677C16.5655 15.3901 16.571 15.0113 16.587 14.6382Z" fill="white"/>
<path d="M29.0047 25.462L29.0048 25.4621C29.3258 25.6834 29.6749 26.2047 29.9846 27.0449C30.2575 27.7851 30.4522 28.6392 30.588 29.4339C30.4564 29.6363 30.1082 30.0639 29.313 30.5144C28.0705 31.2185 25.698 31.9995 21.3067 31.9995C16.9155 31.9995 14.5429 31.2185 13.3005 30.5144C12.5067 30.0646 12.1583 29.6378 12.0261 29.4349C12.0992 29.0236 12.2554 28.2488 12.5104 27.4608C12.6633 26.9881 12.8434 26.5375 13.0478 26.1676C13.2595 25.7846 13.4552 25.5656 13.6034 25.4657L13.6036 25.4656C14.2818 25.0085 16.6477 23.7248 17.9693 23.016C18.5216 23.3978 19.1176 23.6837 19.7478 23.8632L20.3718 25.5079L21.3067 27.9724L22.2417 25.5079L22.8657 23.8632C23.496 23.6837 24.092 23.3977 24.6445 23.0158C25.9724 23.7263 28.3251 24.9935 29.0047 25.462ZM30.657 29.3117C30.657 29.3117 30.6563 29.3135 30.6548 29.3169C30.6562 29.3134 30.6569 29.3117 30.657 29.3117ZM11.9565 29.3117C11.9566 29.3117 11.9573 29.3134 11.9587 29.3169C11.9572 29.3135 11.9565 29.3117 11.9565 29.3117Z" stroke="white" stroke-width="2"/>
</svg>
